<?xml version="1.0" encoding="UTF-8"?>
<svg width="82px" height="87px" viewBox="0 0 82 87" version="1.1" xmlns="http://www.w3.org/2000/svg" xmlns:xlink="http://www.w3.org/1999/xlink">
    <!-- Generator: Sketch 46.2 (44496) - http://www.bohemiancoding.com/sketch -->
    <title>M</title>
    <desc>Created with Sketch.</desc>
    <defs>
        <linearGradient x1="50%" y1="50%" x2="50%" y2="0%" id="linearGradient-1">
            <stop stop-color="#40547C" offset="0%"></stop>
            <stop stop-color="#1E2A46" offset="100%"></stop>
        </linearGradient>
        <linearGradient x1="0.25781251%" y1="49.7500002%" x2="101.257813%" y2="49.7500002%" id="linearGradient-2">
            <stop stop-color="#3023AE" offset="0%"></stop>
            <stop stop-color="#53A0FD" offset="47.5247532%"></stop>
            <stop stop-color="#B4EC51" offset="100%"></stop>
        </linearGradient>
    </defs>
    <g id="Page-1" stroke="none" stroke-width="1" fill="none" fill-rule="evenodd">
        <g id="M">
            <path d="M66.0069153,28.9645549 L66.1352941,84 C66.1352941,85 67,86 68,86 L80,86 C81,86 82,85 82,84 L82,3 C82,2 81,1 80,1.02415565 C72.4509804,0.991948118 68.1176471,0.983896235 67,1 L67,1 L67,1 C66.4560688,1.01519477 65.9515048,1.28721109 65.6398569,1.73326898 L42.644466,34.6462956 L42.644466,34.6462956 C42.0118446,35.551759 40.7649805,35.7729412 39.8595171,35.1403198 C39.6655648,35.0048109 39.4971959,34.835962 39.3622395,34.6416249 L17.1408748,2.64285974 L17.1408748,2.64285974 C16.4274221,1.61548778 15.2507117,1.00904977 14,1.02415565 L14,1.02415565 C13.9322742,1.02965855 9.93227419,1.02160667 2,1 C0.8954305,1 -1.3527075e-16,1.8954305 0,3 L0,84 C1.3527075e-16,85.1045695 0.8954305,86 2,86 L14.1882353,86 C15.2928048,86 16,85.1045695 16,84 L16,28.9760193 L16,28.9760193 C16,28.4237346 16.4477153,27.9760193 17,27.9760193 C17.3130578,27.9760193 17.6080498,28.1226258 17.7970921,28.3721616 L38.6087236,55.8435151 L38.6087236,55.8435151 C39.6092277,57.1641806 41.4909076,57.4237227 42.8115731,56.4232185 C43.0304245,56.2574219 43.2254799,56.0623666 43.3912764,55.8435151 L64.2098259,28.3630299 L64.2098259,28.3630299 C64.5433273,27.922808 65.1705539,27.836294 65.6107757,28.1697954 C65.8596577,28.3583424 66.0061869,28.6523183 66.0069153,28.9645549 Z" fill="url(#linearGradient-1)"></path>
            <path d="M55.7333868,39.6552322 L43.3866213,55.8663936 C43.2233869,56.0807185 43.0320264,56.272079 42.8177015,56.4353134 C41.499607,57.4392022 39.6172676,57.1844882 38.6133787,55.8663936 L17.7955404,28.5328107 C17.6064052,28.2844783 17.3121556,28.1387113 17,28.1387113 C16.4477153,28.1387113 16,28.5864265 16,29.1387113 L16,29.1387113 L16,84.1752868 C16,85.2798563 15.2928048,86.1752868 14.1882353,86.1752868 L2,86.1752868 C0.8954305,86.1752868 1.3527075e-16,85.2798563 0,84.1752868 L0,6.16723488 L33.5522511,26.3274612 L39.3648495,34.6568481 C39.4984879,34.8483504 39.6646318,35.0149689 39.8557522,35.149153 C40.7597613,35.7838508 42.0071297,35.5655308 42.6418275,34.6615217 L44.0602196,32.6412857 L55.7333868,39.6552322 Z M82,55.4378056 L82,84.1752868 C82,85.1752868 81,86.1752868 80,86.1752868 L68,86.1752868 C67,86.1752868 66.1352941,85.1752868 66.1352941,84.1752868 L66.0458981,45.8516141 L82,55.4378056 Z" id="Combined-Shape" fill="url(#linearGradient-2)"></path>
        </g>
    </g>
</svg>